<svg xmlns="http://www.w3.org/2000/svg" xmlns:xlink="http://www.w3.org/1999/xlink" width="1250" height="310" viewBox="0 0 1250 310"><defs><clipPath id="a"><path d="M79.278,233.68c3.6,1.98,7.38,4.861,13.32,8.1,11.519,6.3,27.539,7.381,47.158,7.381,21.6,0,49.138-1.26,67.317-3.24-1.44,3.24-3.42,8.82-3.6,12.42-13.859.9-46.078,1.978-64.077,1.978-21.239,0-37.079-1.8-49.5-8.638-7.56-4.141-13.5-9.36-17.46-9.36-5.939,0-14.219,9.36-22.679,19.979L41.84,251.5c9.18-9.18,18-16.379,25.559-18.9V180.4H44.18V168.883h35.1ZM74.238,143.5c-5.4-7.379-16.379-19.979-24.839-29.158l9.54-5.76c8.28,8.639,19.619,20.519,25.2,27.9Zm42.119,15.66c-.54,23.4-4.32,53.816-21.419,74.877a38.776,38.776,0,0,0-9.9-6.84c17.459-21.24,19.619-50.939,19.619-73.078V115.064c30.239-1.439,66.6-4.859,86.217-10.078l9.719,9.36c-21.779,5.939-54.9,9.359-84.236,10.8v23.218h69.3l2.16-.539,7.379,2.879a129.779,129.779,0,0,1-27.538,50.938c11.7,9.9,22.319,19.439,29.518,26.64l-9.179,8.459c-6.84-7.2-16.919-16.92-28.259-26.818A134.453,134.453,0,0,1,117.257,237.1a47.141,47.141,0,0,0-6.84-9.719,117.63,117.63,0,0,0,40.678-24.84c-10.079-8.639-20.519-17.279-29.879-24.479l8.46-6.839c9,7.019,19.26,15.119,29.339,23.218a116.948,116.948,0,0,0,21.6-35.277Z" style="fill:none"/></clipPath><clipPath id="b"><path d="M340.258,189.762c-2.52,15.84-6.66,29.7-12.06,41.039,12.06,18.719,35.1,21.418,68.4,21.6,18.72,0,44.279-.9,62.1-2.339-1.8,2.7-3.42,8.1-3.96,11.519-16.559,1.078-38.7,1.44-58.317,1.44-36.179,0-58.858-3.6-73.078-23.219A83.589,83.589,0,0,1,299.4,266.26a35.65,35.65,0,0,0-7.919-8.461c17.639-11.158,30.6-31.319,36.538-60.3H307.139c-4.5,0-9.18,1.26-10.619,2.519a76.359,76.359,0,0,0-4.5-11.16,17.157,17.157,0,0,0,8.459-5.039c4.14-4.32,15.12-19.619,22.68-30.779H294.18v-9.9h36.358l2.16-.9,8.1,3.779c-7.2,10.44-20.88,29.52-30.959,41.579h22.319l2.16-.18ZM323.7,137.023a290.728,290.728,0,0,0-22.5-28.617l8.82-5.22c8.28,8.64,18,20.339,22.859,27.539Zm47.339,22.141c-.54,25.018-4.86,57.416-22.86,80.275a39.428,39.428,0,0,0-9.539-6.119c19.079-23.939,21.419-57.238,21.419-81.537v-41.4h90.9v10.98H371.216v27.36h64.078l1.98-.541,7.379,2.7a139.748,139.748,0,0,1-22.139,48.779c12.24,11.34,23.039,22.318,29.879,31.318l-9.18,8.1c-6.3-8.641-16.2-19.439-27.718-30.418a123.3,123.3,0,0,1-45.179,32.758,37.972,37.972,0,0,0-6.659-9.539c15.839-5.94,31.138-16.561,43.738-30.959-9.359-8.641-19.439-17.1-28.619-24.3l8.28-6.84c8.639,6.66,18,14.219,27.179,22.319a117.5,117.5,0,0,0,16.379-32.938Z" style="fill:none"/></clipPath><clipPath id="c"><path d="M829.278,229.9c9,13.68,25.74,19.979,47.7,20.7,19.439.9,59.757.359,80.457-1.08a49.9,49.9,0,0,0-3.961,12.06c-19.44.9-56.7,1.26-76.5.539-24.12-.9-41.219-7.379-52.739-21.6-8.279,7.74-16.739,15.66-25.738,23.4l-6.66-11.881c7.74-5.58,17.279-13.68,25.738-21.238V183.643H794.539V172.3h34.739Zm-3.96-87.117c-5.4-9-17.819-21.418-29.158-29.879l9-7.019c11.159,8.1,23.939,20.34,29.7,29.16Zm40.5,16.561c-.719,24.119-4.5,54.9-21.238,76.676a33.015,33.015,0,0,0-9.54-6.84c17.459-22.5,19.259-53.637,19.259-77.035V110.926h96.116v11.34h-84.6v26.459h68.758l2.16-.541,7.559,2.7c-5.939,23.76-16.738,42.84-30.418,57.779,11.7,10.619,26.1,18.539,42.838,23.4a39.5,39.5,0,0,0-7.74,10.259A113.734,113.734,0,0,1,905.6,216.762a127.446,127.446,0,0,1-39.419,23.758,42.239,42.239,0,0,0-6.84-9.9A110.163,110.163,0,0,0,897.5,208.3c-11.7-13.5-20.519-29.879-26.64-48.957Zm16.379,0c5.4,15.658,13.141,29.517,23.4,41.037a113.668,113.668,0,0,0,24.119-41.037Z" style="fill:none"/></clipPath><clipPath id="d"><path d="M1079.639,230.26c9,13.5,25.2,19.8,46.617,20.7,19.619.721,60.478.18,81.357-1.08a54.19,54.19,0,0,0-4.14,11.881c-19.44.719-57.238,1.08-77.037.359-23.758-.9-40.5-7.379-51.838-21.42-8.28,7.74-17.1,15.481-26.279,23.4l-6.479-11.7c7.92-5.941,17.459-13.5,26.1-21.24V196.242H1044v-11.16h35.639Zm-3.42-60.836c-6.481-6.84-19.8-15.84-31.32-21.42l7.74-7.74c11.519,5.041,25.019,13.679,31.679,20.519Zm5.039-35.639c-5.76-7.021-18.539-16.381-29.519-22.14l7.92-7.559c10.8,5.58,23.939,14.578,30.059,21.6Zm34.558,25.559c-.719,24.119-4.5,54.9-21.238,76.676a33.015,33.015,0,0,0-9.54-6.84c17.459-22.5,19.259-53.637,19.259-77.035V110.926h96.116v11.34h-84.6v26.459h68.758l2.16-.541,7.559,2.7c-5.939,23.76-16.738,42.84-30.418,57.779,11.7,10.619,26.1,18.539,42.838,23.4a39.5,39.5,0,0,0-7.74,10.259,113.734,113.734,0,0,1-43.377-25.558,127.446,127.446,0,0,1-39.419,23.758,42.239,42.239,0,0,0-6.84-9.9A110.163,110.163,0,0,0,1147.5,208.3c-11.7-13.5-20.519-29.879-26.64-48.957Zm16.379,0c5.4,15.658,13.141,29.517,23.4,41.037a113.668,113.668,0,0,0,24.119-41.037Z" style="fill:none"/></clipPath><clipPath id="e"><path d="M590.438,189.762c-2.7,16.019-6.661,29.879-12.059,41.218,12.059,18.54,35.1,21.42,68.217,21.42,18.539,0,44.277-.9,62.1-2.339-1.8,2.7-3.42,8.279-3.961,11.7-16.558.9-38.878,1.439-58.316,1.439-36.18,0-58.678-3.6-73.078-23.039a80.094,80.094,0,0,1-23.578,26.279,47.416,47.416,0,0,0-8.28-8.64c17.459-11.34,30.418-31.319,36.178-60.3H557.68c-4.68,0-9.18,1.26-10.62,2.519a99.009,99.009,0,0,0-4.68-11.7,20.777,20.777,0,0,0,8.64-5.22c3.959-4.319,14.759-19.079,22.138-29.879H543.82V143.145h36.537l2.7-1.081,8.638,3.959c-7.379,10.62-21.058,29.7-30.959,41.579h21.241l2.16-.18ZM573.7,137.023c-4.86-7.378-14.579-19.619-22.5-28.437l9-5.58c8.28,8.82,18,20.34,22.86,27.539Zm47.339,22.5c-.721,24.838-4.86,57.6-22.5,80.278a47,47,0,0,0-9.719-6.121c18.719-23.938,20.879-57.237,20.879-81.356V114.705h3.78c26.819-1.619,58.5-4.859,75.777-9.719l8.819,9.36c-19.979,5.4-50.4,8.638-77.036,10.259v24.3h64.257l1.979-.541,7.38,2.7A138.743,138.743,0,0,1,671.074,202c12.24,11.158,23.219,22.5,30.059,31.5l-9.539,8.1c-6.119-8.639-16.2-19.62-27.719-30.6A123.816,123.816,0,0,1,620.5,241.779a41.127,41.127,0,0,0-6.84-9.718c15.12-5.581,29.7-15.661,41.94-29.159-9.54-8.64-19.44-17.279-28.8-24.48l8.459-6.84c8.82,6.66,18.359,14.58,27.359,22.68a115.374,115.374,0,0,0,17.819-34.739Z" style="fill:none"/></clipPath></defs><title>difference</title><rect width="250" height="310" style="fill:#f8f8f8"/><rect x="250" width="250" height="310" style="fill:#d8d8d8"/><rect x="500" width="250" height="310" style="fill:#f8f8f8"/><rect x="750" width="250" height="310" style="fill:#d8d8d8"/><rect x="1000" width="250" height="310" style="fill:#f8f8f8"/><path d="M96.458,32.084A11.489,11.489,0,0,1,94.825,34.2c-.241-.175-.7-.5-.992-.656a9.21,9.21,0,0,0,2.512-3.89l1.137.273c-.144.4-.3.768-.481,1.152h3.89v1.009H98.634a10.686,10.686,0,0,1,.737,1.52l-1.041.433a11.463,11.463,0,0,0-.912-1.953Zm-1.7,3.762h1.152v8.435H94.761Zm1.584-1.969a10.677,10.677,0,0,1,1.825,1.952l-.912.656a10,10,0,0,0-1.777-2.016Zm7.635,8.5H98.138v-5.49h5.842Zm3.282.5c0,.673-.16.977-.624,1.152a8.29,8.29,0,0,1-2.466.193,3.372,3.372,0,0,0-.383-1.057c.9.031,1.76.031,1.984.016.256-.016.32-.08.32-.3v-7.3H98.634V34.484h8.628Zm-8.083-5.058v1.329h3.729V37.814Zm3.729,3.633V40.023H99.179v1.424Zm4.914-10.355V32.1h-2.593a8.693,8.693,0,0,1,.9,1.568l-1.024.465a10.2,10.2,0,0,0-1.137-2.033h-1.232a9.125,9.125,0,0,1-1.265,1.793,5.421,5.421,0,0,0-.976-.672,8.288,8.288,0,0,0,2.033-3.555l1.121.257a8.03,8.03,0,0,1-.417,1.169Z"/><path d="M114.17,30.083a27.053,27.053,0,0,1-1.424,3.377V44.281h-1.137V35.43a17.146,17.146,0,0,1-1.36,1.84,8.84,8.84,0,0,0-.689-1.168,18.6,18.6,0,0,0,3.5-6.356Zm6.035,3.97a15.928,15.928,0,0,0,4.321,6.722,4.187,4.187,0,0,0-.9.945,18.024,18.024,0,0,1-4.194-7.011v5.554h2.577v1.089h-2.577v2.865h-1.152V41.352h-2.609V40.263h2.609V34.82a18.448,18.448,0,0,1-4.242,6.932,5.687,5.687,0,0,0-.864-.9,16.384,16.384,0,0,0,4.385-6.8H113.8V32.9h4.482V29.746h1.152V32.9h4.77v1.153Z"/><path d="M139.39,32.531v7.492h-1.217V39.11H133.58V44.3h-1.233V39.11h-4.578V40.1H126.6V32.531h5.746V29.683h1.233v2.848Zm-7.043,5.41V33.7h-4.578v4.241Zm5.826,0V33.7H133.58v4.241Z"/><path d="M153.693,33.668a16.9,16.9,0,0,1-3.745,6.2,15.706,15.706,0,0,0,6.466,3.249,5.507,5.507,0,0,0-.816,1.1,16.19,16.19,0,0,1-6.563-3.506,18.411,18.411,0,0,1-6.659,3.57,6.592,6.592,0,0,0-.736-1.1,17.21,17.21,0,0,0,6.531-3.313,18.017,18.017,0,0,1-3.841-6.195h-2.466V32.5h14.342v1.168Zm-8.131,0a16.184,16.184,0,0,0,3.489,5.362,14.682,14.682,0,0,0,3.3-5.362Zm3.393-1.2a12.476,12.476,0,0,0-1.184-2.513L149,29.6a13.112,13.112,0,0,1,1.249,2.449Z"/><path d="M64.878,58.535l.785-.883a3.977,3.977,0,0,0,2.83,1.276c1.344,0,2.157-.673,2.157-1.682,0-1.051-.743-1.387-1.709-1.82l-1.485-.645a2.9,2.9,0,0,1-2.087-2.634c0-1.583,1.373-2.731,3.235-2.731a4.212,4.212,0,0,1,3.026,1.275l-.686.827a3.33,3.33,0,0,0-2.34-.967c-1.162,0-1.918.588-1.918,1.512,0,1,.9,1.374,1.694,1.709l1.471.63c1.191.52,2.115,1.219,2.115,2.746,0,1.625-1.344,2.914-3.487,2.914A4.908,4.908,0,0,1,64.878,58.535Z"/><path d="M73.657,49.851a.855.855,0,1,1,.854.854A.8.8,0,0,1,73.657,49.851Zm.21,2.422h1.275V59.88H73.867Z"/><path d="M77.717,52.273h1.051l.111,1.108h.042a3.342,3.342,0,0,1,2.368-1.3,2.006,2.006,0,0,1,2.1,1.457A3.593,3.593,0,0,1,85.9,52.078c1.569,0,2.311,1.036,2.311,2.984V59.88H86.934V55.229c0-1.428-.448-2.031-1.415-2.031A2.808,2.808,0,0,0,83.6,54.361V59.88H82.325V55.229c0-1.428-.448-2.031-1.414-2.031a2.806,2.806,0,0,0-1.919,1.163V59.88H77.717Z"/><path d="M90.681,52.273h1.05l.112.87h.042a4.054,4.054,0,0,1,2.424-1.065c1.961,0,3.025,1.541,3.025,3.88,0,2.6-1.554,4.1-3.305,4.1a3.435,3.435,0,0,1-2.1-.882l.029,1.33v2.578H90.681ZM96,55.972c0-1.681-.56-2.816-2-2.816a3.171,3.171,0,0,0-2.044,1.051V58.2a2.948,2.948,0,0,0,1.862.8C95.079,59,96,57.863,96,55.972Z"/><path d="M99.36,58.367V48.73h1.275v9.721c0,.393.168.547.365.547a1.09,1.09,0,0,0,.266-.029l.182.98a1.944,1.944,0,0,1-.743.113C99.752,60.062,99.36,59.445,99.36,58.367Z"/><path d="M103.14,49.851a.855.855,0,1,1,.855.854A.8.8,0,0,1,103.14,49.851Zm.21,2.422h1.275V59.88H103.35Z"/><path d="M107.411,53.311h-1.037v-.967l1.037-.071V51.055c0-1.541.7-2.507,2.213-2.507a3.279,3.279,0,0,1,1.274.252l-.28.967a2.16,2.16,0,0,0-.854-.2c-.729,0-1.079.518-1.079,1.5v1.2H110.3v1.038h-1.611V59.88h-1.274Zm4.146-3.46a.8.8,0,0,1,.84-.828.841.841,0,1,1,0,1.682A.8.8,0,0,1,111.557,49.851Zm.2,2.422h1.289V59.88h-1.289Z"/><path d="M115.026,56.084c0-2.465,1.667-4.006,3.432-4.006,1.933,0,3.025,1.4,3.025,3.571a4.853,4.853,0,0,1-.056.729H116.3a2.519,2.519,0,0,0,2.521,2.661,3.287,3.287,0,0,0,1.905-.6l.462.839a4.518,4.518,0,0,1-2.521.785A3.635,3.635,0,0,1,115.026,56.084Zm5.337-.631c0-1.526-.7-2.353-1.891-2.353a2.336,2.336,0,0,0-2.185,2.353Z"/><path d="M122.81,56.084c0-2.465,1.555-4.006,3.292-4.006a3.094,3.094,0,0,1,2.143.9l-.057-1.318V48.73h1.261V59.88h-1.036l-.112-.9h-.042a3.392,3.392,0,0,1-2.312,1.079C124.042,60.062,122.81,58.619,122.81,56.084Zm5.378,1.863V53.955a2.725,2.725,0,0,0-1.862-.8c-1.233,0-2.2,1.177-2.2,2.914,0,1.834.757,2.928,2.1,2.928A2.662,2.662,0,0,0,128.188,57.947Z"/><path d="M134.7,54.753c0-3.319,1.947-5.337,4.552-5.337a3.8,3.8,0,0,1,2.816,1.275l-.7.84a2.8,2.8,0,0,0-2.1-.98c-1.947,0-3.236,1.6-3.236,4.16,0,2.592,1.233,4.217,3.194,4.217a3.124,3.124,0,0,0,2.382-1.149l.714.813a3.974,3.974,0,0,1-3.152,1.47C136.615,60.062,134.7,58.087,134.7,54.753Z"/><path d="M144.1,48.73h1.274v3.053l-.042,1.57a3.571,3.571,0,0,1,2.522-1.275c1.6,0,2.325,1.036,2.325,2.984V59.88h-1.275V55.229c0-1.428-.434-2.031-1.443-2.031a2.893,2.893,0,0,0-2.087,1.163V59.88H144.1Z"/><path d="M152.392,49.851a.855.855,0,1,1,.854.854A.8.8,0,0,1,152.392,49.851Zm.21,2.422h1.274V59.88H152.6Z"/><path d="M156.452,52.273h1.05l.112,1.093h.042a3.65,3.65,0,0,1,2.55-1.288c1.6,0,2.325,1.036,2.325,2.984V59.88h-1.275V55.229c0-1.428-.434-2.031-1.443-2.031a2.89,2.89,0,0,0-2.086,1.163V59.88h-1.275Z"/><path d="M164.431,56.084c0-2.465,1.667-4.006,3.432-4.006,1.933,0,3.026,1.4,3.026,3.571a4.989,4.989,0,0,1-.056.729h-5.127a2.52,2.52,0,0,0,2.521,2.661,3.284,3.284,0,0,0,1.905-.6l.463.839a4.524,4.524,0,0,1-2.522.785A3.635,3.635,0,0,1,164.431,56.084Zm5.337-.631c0-1.526-.7-2.353-1.891-2.353a2.336,2.336,0,0,0-2.185,2.353Z"/><path d="M171.907,59.012l.63-.841a3.453,3.453,0,0,0,2.255.9c1.009,0,1.5-.532,1.5-1.19,0-.785-.9-1.121-1.738-1.443-1.064-.392-2.227-.911-2.227-2.2,0-1.2.981-2.156,2.633-2.156a3.867,3.867,0,0,1,2.354.854l-.617.827a2.779,2.779,0,0,0-1.722-.673c-.967,0-1.415.5-1.415,1.093,0,.728.784.995,1.639,1.317,1.106.42,2.325.867,2.325,2.311,0,1.232-.981,2.255-2.774,2.255A4.594,4.594,0,0,1,171.907,59.012Z"/><path d="M178.739,56.084c0-2.465,1.667-4.006,3.431-4.006,1.934,0,3.026,1.4,3.026,3.571a4.989,4.989,0,0,1-.056.729h-5.126a2.519,2.519,0,0,0,2.521,2.661,3.289,3.289,0,0,0,1.905-.6l.462.839a4.521,4.521,0,0,1-2.521.785A3.635,3.635,0,0,1,178.739,56.084Zm5.337-.631c0-1.526-.7-2.353-1.891-2.353A2.336,2.336,0,0,0,180,55.453Z"/><path d="M334.99,42.439v1.169H320.745V42.439h2.176v-7.49h1.2v7.49h3.521V32.02h-6.29V30.867h13.109V32.02h-5.6v4.257h4.994v1.168H328.86v4.994Z"/><path d="M342.106,34.677h.689v2.289h-.736V43.1c0,.512-.1.768-.449.945a5.391,5.391,0,0,1-1.792.16,4.49,4.49,0,0,0-.337-.913c.625.017,1.185.017,1.345.017.176,0,.224-.065.224-.225v-2.1c-.752.464-1.472.913-2.145,1.3l-.448-.847c.689-.289,1.617-.769,2.593-1.282v-2.7h-2.513v2.146a8.659,8.659,0,0,1-1.1,4.769,3.594,3.594,0,0,0-.832-.639,7.416,7.416,0,0,0,.928-4.13V36.966h-.784V34.677h.656V30.259h4.7Zm-.255.864h-4.194V36.6h4.194Zm-3.474-.864h.993V32.2h1.744V31.172h-2.737Zm1.953,5.33a13.358,13.358,0,0,0-1.7-1.409l.544-.543a11.306,11.306,0,0,1,1.745,1.3Zm.784-5.33v-1.73h-1.04v1.73Zm10.036,8.387v.928h-8.275v-.928h2.289a12.081,12.081,0,0,0-.56-1.5l.928-.273c.24.545.528,1.265.688,1.777h1.537c.24-.56.528-1.312.688-1.825l1.089.321c-.272.5-.56,1.055-.8,1.5Zm-.144-5.585h-7.971v-.9h7.971Zm-.4-1.73h-7.219V30.932h1.985V29.715h.976v1.217H347.5V29.715h.976v1.217h2.129Zm-6.787,5.458V38.246h6.4v2.961Zm.5-8.291h1.233V31.779h-1.233Zm0,1.984h1.233V33.717h-1.233Zm.561,5.507h4.242V39.062h-4.242Zm2.673-7.491V31.779h-1.2v1.137Zm-1.2.8V34.9h1.2V33.717Zm3.3-1.938h-1.3v1.137h1.3Zm0,1.938h-1.3V34.9h1.3Z"/><path d="M366.238,32.531v7.492h-1.217V39.11h-4.593V44.3H359.2V39.11h-4.578V40.1h-1.168V32.531H359.2V29.683h1.233v2.848Zm-7.043,5.41V33.7h-4.578v4.241Zm5.826,0V33.7h-4.593v4.241Z"/><path d="M380.542,33.668a16.914,16.914,0,0,1-3.746,6.2,15.712,15.712,0,0,0,6.466,3.249,5.507,5.507,0,0,0-.816,1.1,16.19,16.19,0,0,1-6.563-3.506,18.415,18.415,0,0,1-6.658,3.57,6.538,6.538,0,0,0-.737-1.1,17.21,17.21,0,0,0,6.531-3.313,18.049,18.049,0,0,1-3.842-6.195h-2.465V32.5h14.342v1.168Zm-8.132,0A16.184,16.184,0,0,0,375.9,39.03a14.682,14.682,0,0,0,3.3-5.362Zm3.393-1.2a12.476,12.476,0,0,0-1.184-2.513l1.233-.352a13.1,13.1,0,0,1,1.248,2.449Z"/><path d="M384.584,38.07h12.837v1.024H384.584Z"/><path d="M405.531,31.459h-6.339v-.832h6.339v-.944H406.7v.944h6.451v.832H406.7v.832h5.266v.785h-11.6v-.785h5.17Zm7.619,11.605v.88H399.192v-.88h6.339v-.848h-4.8v-.784h4.8v-.786a21.928,21.928,0,0,0-3.89.209,8.715,8.715,0,0,0-.272-.865,2.9,2.9,0,0,0,.864-.207A11.363,11.363,0,0,0,403.8,39h-2.753v-.736H411.2V39h-1.824a16.87,16.87,0,0,1,2.273,1.568l-.737.625a9.869,9.869,0,0,0-.784-.656l-3.426.08v.817h5.01v.784H406.7v.848Zm-1.441-4.049V37.574h-11.14v1.441H399.5V36.742H412.83v2.273Zm-.416-5.267v2.321H401.081V33.748Zm-1.168.705h-7.939v.912h7.939ZM405.211,39a12.506,12.506,0,0,1-1.681.929l5.586-.08c-.416-.273-.848-.513-1.232-.72l.144-.129Z"/><path d="M417.081,36.613a10.378,10.378,0,0,0-2.289-1.68l.672-.8a9.909,9.909,0,0,1,2.337,1.584ZM415.1,43.5a52.139,52.139,0,0,0,2-5.09l.928.624c-.528,1.665-1.232,3.618-1.857,5.074Zm2.257-11.028a10.452,10.452,0,0,0-2.209-1.777l.689-.785a9.544,9.544,0,0,1,2.24,1.7Zm1.777,3.121a8.784,8.784,0,0,1-.7,2.209,5.4,5.4,0,0,0-.593-.384,6.987,6.987,0,0,0,.608-1.984Zm2.145-.624a5.212,5.212,0,0,0-.192-.512,11.261,11.261,0,0,0-2.77.5,2.908,2.908,0,0,0-.271-.625c.24-.031.463-.24.736-.56a8.269,8.269,0,0,0,.992-1.2,6.011,6.011,0,0,0-1.473.224,3.276,3.276,0,0,0-.272-.608c.192-.033.321-.176.48-.416A7.665,7.665,0,0,0,419.5,29.8l.752.271a8.893,8.893,0,0,1-1.072,1.873l1.072-.08c.145-.24.289-.463.417-.72l.72.32a14.947,14.947,0,0,1-1.969,2.562l1.409-.177c-.1-.176-.208-.352-.305-.528l.593-.209a6.679,6.679,0,0,1,.768,1.57Zm7.427,6.146a2.616,2.616,0,0,1-.064.481c-.3,1.377-.624,2.08-1.057,2.4a1.868,1.868,0,0,1-1.2.3c-.481.015-1.441,0-2.449-.065a2.269,2.269,0,0,0-.336-.912c1.024.1,2.065.112,2.465.112a1.07,1.07,0,0,0,.672-.127c.272-.177.48-.593.688-1.377H419a22.2,22.2,0,0,0,.688-2.385h7.219v-.832h-7.8v-.77h8.9v2.37H420.6c-.064.272-.145.544-.225.8Zm-8.884-3.586a8.7,8.7,0,0,0-.352-1.968l.624-.161a7.8,7.8,0,0,1,.385,1.906Zm1.425-2.384a6.726,6.726,0,0,1,.576,1.713l-.608.271a9.015,9.015,0,0,0-.561-1.792ZM425.5,32.02h-3.841v-.737h1.7a6.054,6.054,0,0,0-.624-1.264l.817-.208a8.311,8.311,0,0,1,.688,1.264l-.7.208H425.5Zm-3.409,2.993H425.1v2.352h-3.009Zm2.993-1.761h-2.945V32.58h2.945Zm-2.945.512h2.945v.656h-2.945Zm.736,2.945h1.409V35.653h-1.409Zm3.666-1.184a9.42,9.42,0,0,1-.688,2.209,4.763,4.763,0,0,0-.624-.416,6.252,6.252,0,0,0,.624-1.953ZM428.75,35c-.048-.176-.145-.367-.24-.607a18.344,18.344,0,0,0-2.785.5,3.471,3.471,0,0,0-.272-.624c.255-.032.464-.224.752-.529a11.391,11.391,0,0,0,.976-1.2,4.546,4.546,0,0,0-1.473.225,3.449,3.449,0,0,0-.271-.624c.191-.017.3-.177.463-.4a7.326,7.326,0,0,0,1.009-1.968l.752.272a8.821,8.821,0,0,1-1.072,1.857l1.057-.064q.238-.36.432-.721l.736.321a15.714,15.714,0,0,1-1.969,2.545l1.393-.176c-.1-.177-.193-.353-.289-.513l.561-.208a6.379,6.379,0,0,1,.848,1.681Zm-1.5,2.658a8.787,8.787,0,0,0-.4-2.129l.64-.16a8.545,8.545,0,0,1,.4,2.08Zm1.393-2.545a8.157,8.157,0,0,1,.7,2l-.624.289a8.7,8.7,0,0,0-.656-2.1Z"/><path d="M282.778,50.705h-3.11V49.6h7.522v1.107h-3.109V59.88h-1.3Z"/><path d="M288.18,52.273h1.051l.112,1.387h.042a2.624,2.624,0,0,1,2.157-1.582,1.61,1.61,0,0,1,.812.168l-.238,1.12a1.815,1.815,0,0,0-.742-.126c-.63,0-1.415.448-1.919,1.751V59.88H288.18Z"/><path d="M292.758,57.9c0-1.652,1.443-2.478,4.679-2.842,0-.982-.322-1.919-1.569-1.919a4.2,4.2,0,0,0-2.284.812l-.5-.883a5.719,5.719,0,0,1,3-.994c1.849,0,2.633,1.246,2.633,3.123V59.88h-1.05l-.112-.911h-.042a4.074,4.074,0,0,1-2.522,1.093A2.063,2.063,0,0,1,292.758,57.9Zm4.679.127V55.9c-2.563.308-3.432.938-3.432,1.918,0,.869.588,1.219,1.345,1.219A3.111,3.111,0,0,0,297.437,58.031Z"/><path d="M300.583,56.084c0-2.465,1.556-4.006,3.292-4.006a3.094,3.094,0,0,1,2.144.9l-.057-1.318V48.73h1.261V59.88h-1.036l-.112-.9h-.042a3.392,3.392,0,0,1-2.312,1.079C301.816,60.062,300.583,58.619,300.583,56.084Zm5.379,1.863V53.955a2.725,2.725,0,0,0-1.862-.8c-1.233,0-2.2,1.177-2.2,2.914,0,1.834.757,2.928,2.1,2.928A2.662,2.662,0,0,0,305.962,57.947Z"/><path d="M309.6,49.851a.855.855,0,1,1,.854.854A.8.8,0,0,1,309.6,49.851Zm.21,2.422h1.274V59.88h-1.274Z"/><path d="M313.884,57.526V53.311H312.75v-.967l1.19-.071.155-2.142h1.064v2.142h2.059v1.038h-2.059v4.244c0,.938.294,1.47,1.177,1.47a2.667,2.667,0,0,0,.868-.2l.253.952a4.768,4.768,0,0,1-1.4.281C314.431,60.062,313.884,59.039,313.884,57.526Z"/><path d="M318.729,49.851a.855.855,0,1,1,.854.854A.8.8,0,0,1,318.729,49.851Zm.209,2.422h1.275V59.88h-1.275Z"/><path d="M322.214,56.084c0-2.535,1.667-4.006,3.53-4.006s3.53,1.471,3.53,4.006-1.667,3.978-3.53,3.978S322.214,58.605,322.214,56.084Zm5.743,0c0-1.751-.9-2.941-2.213-2.941s-2.2,1.19-2.2,2.941.883,2.914,2.2,2.914S327.957,57.835,327.957,56.084Z"/><path d="M331.272,52.273h1.051l.112,1.093h.042a3.65,3.65,0,0,1,2.55-1.288c1.6,0,2.325,1.036,2.325,2.984V59.88h-1.275V55.229c0-1.428-.434-2.031-1.443-2.031a2.893,2.893,0,0,0-2.087,1.163V59.88h-1.275Z"/><path d="M339.35,57.9c0-1.652,1.443-2.478,4.679-2.842,0-.982-.322-1.919-1.57-1.919a4.2,4.2,0,0,0-2.283.812l-.5-.883a5.726,5.726,0,0,1,3-.994c1.849,0,2.633,1.246,2.633,3.123V59.88h-1.051l-.111-.911H344.1a4.074,4.074,0,0,1-2.522,1.093A2.063,2.063,0,0,1,339.35,57.9Zm4.679.127V55.9c-2.564.308-3.432.938-3.432,1.918,0,.869.588,1.219,1.344,1.219A3.111,3.111,0,0,0,344.029,58.031Z"/><path d="M347.722,58.367V48.73H349v9.721c0,.393.168.547.364.547a1.081,1.081,0,0,0,.266-.029l.182.98a1.94,1.94,0,0,1-.743.113C348.114,60.062,347.722,59.445,347.722,58.367Z"/><path d="M354.372,54.753c0-3.319,1.946-5.337,4.552-5.337a3.8,3.8,0,0,1,2.816,1.275l-.7.84a2.805,2.805,0,0,0-2.1-.98c-1.947,0-3.236,1.6-3.236,4.16,0,2.592,1.233,4.217,3.194,4.217a3.122,3.122,0,0,0,2.381-1.149l.715.813a3.976,3.976,0,0,1-3.152,1.47C356.291,60.062,354.372,58.087,354.372,54.753Z"/><path d="M363.779,48.73h1.275v3.053l-.042,1.57a3.569,3.569,0,0,1,2.522-1.275c1.6,0,2.325,1.036,2.325,2.984V59.88h-1.275V55.229c0-1.428-.434-2.031-1.443-2.031a2.893,2.893,0,0,0-2.087,1.163V59.88h-1.275Z"/><path d="M372.067,49.851a.855.855,0,1,1,.855.854A.8.8,0,0,1,372.067,49.851Zm.21,2.422h1.275V59.88h-1.275Z"/><path d="M376.127,52.273h1.051l.112,1.093h.042a3.648,3.648,0,0,1,2.549-1.288c1.6,0,2.326,1.036,2.326,2.984V59.88h-1.275V55.229c0-1.428-.434-2.031-1.443-2.031a2.891,2.891,0,0,0-2.087,1.163V59.88h-1.275Z"/><path d="M384.106,56.084c0-2.465,1.667-4.006,3.433-4.006,1.932,0,3.025,1.4,3.025,3.571a4.989,4.989,0,0,1-.056.729h-5.127a2.52,2.52,0,0,0,2.521,2.661,3.29,3.29,0,0,0,1.906-.6l.462.839a4.521,4.521,0,0,1-2.521.785A3.635,3.635,0,0,1,384.106,56.084Zm5.337-.631c0-1.526-.7-2.353-1.891-2.353a2.337,2.337,0,0,0-2.185,2.353Z"/><path d="M391.582,59.012l.63-.841a3.453,3.453,0,0,0,2.256.9c1.008,0,1.5-.532,1.5-1.19,0-.785-.9-1.121-1.737-1.443-1.064-.392-2.227-.911-2.227-2.2,0-1.2.981-2.156,2.634-2.156a3.867,3.867,0,0,1,2.353.854l-.616.827a2.784,2.784,0,0,0-1.723-.673c-.967,0-1.415.5-1.415,1.093,0,.728.785.995,1.639,1.317,1.106.42,2.325.867,2.325,2.311,0,1.232-.98,2.255-2.773,2.255A4.6,4.6,0,0,1,391.582,59.012Z"/><path d="M398.414,56.084c0-2.465,1.667-4.006,3.432-4.006,1.933,0,3.026,1.4,3.026,3.571a4.836,4.836,0,0,1-.057.729h-5.126a2.52,2.52,0,0,0,2.521,2.661,3.284,3.284,0,0,0,1.905-.6l.463.839a4.524,4.524,0,0,1-2.522.785A3.635,3.635,0,0,1,398.414,56.084Zm5.337-.631c0-1.526-.7-2.353-1.891-2.353a2.336,2.336,0,0,0-2.185,2.353Z"/><path d="M409.237,55.5h11.234v.9H409.237Z"/><path d="M427.789,50.705h-3.11V49.6H432.2v1.107h-3.11V59.88h-1.3Z"/><path d="M432.309,57.9c0-1.652,1.442-2.478,4.678-2.842,0-.982-.322-1.919-1.569-1.919a4.192,4.192,0,0,0-2.283.812l-.5-.883a5.722,5.722,0,0,1,3-.994c1.85,0,2.634,1.246,2.634,3.123V59.88h-1.051l-.112-.911h-.042a4.071,4.071,0,0,1-2.521,1.093A2.062,2.062,0,0,1,432.309,57.9Zm4.678.127V55.9c-2.563.308-3.432.938-3.432,1.918,0,.869.589,1.219,1.345,1.219A3.109,3.109,0,0,0,436.987,58.031Z"/><path d="M440.471,49.851a.855.855,0,1,1,.854.854A.8.8,0,0,1,440.471,49.851Zm.21,2.422h1.275V59.88h-1.275Z"/><path d="M443.621,52.273h1.3l1.135,4.4c.154.728.308,1.415.448,2.129h.07c.168-.714.322-1.414.518-2.129l1.177-4.4h1.247l1.19,4.4c.182.728.351,1.415.533,2.129h.055c.169-.714.308-1.4.477-2.129l1.121-4.4h1.2l-2.045,7.607h-1.541l-1.106-4.105c-.2-.713-.337-1.414-.519-2.185h-.07c-.168.771-.322,1.485-.518,2.214l-1.065,4.076h-1.5Z"/><path d="M455.129,57.9c0-1.652,1.443-2.478,4.678-2.842,0-.982-.322-1.919-1.568-1.919a4.2,4.2,0,0,0-2.284.812l-.5-.883a5.722,5.722,0,0,1,3-.994c1.849,0,2.633,1.246,2.633,3.123V59.88h-1.05l-.113-.911h-.042a4.071,4.071,0,0,1-2.521,1.093A2.063,2.063,0,0,1,455.129,57.9Zm4.678.127V55.9c-2.563.308-3.432.938-3.432,1.918,0,.869.589,1.219,1.345,1.219A3.109,3.109,0,0,0,459.807,58.031Z"/><path d="M463.5,52.273h1.051l.112,1.093h.042a3.648,3.648,0,0,1,2.549-1.288c1.6,0,2.326,1.036,2.326,2.984V59.88h-1.275V55.229c0-1.428-.434-2.031-1.443-2.031a2.891,2.891,0,0,0-2.087,1.163V59.88H463.5Z"/><path d="M583.854,31.892a7.638,7.638,0,0,1-1.713,2.881,7.662,7.662,0,0,0,3.057,1.6,4.178,4.178,0,0,0-.688.9,8.389,8.389,0,0,1-3.089-1.809,10.146,10.146,0,0,1-2.737,1.553,4.206,4.206,0,0,0-.657-.785v.193h-.944a1.2,1.2,0,0,1-.288.559.75.75,0,0,1-.256.208c.384-.175.752-.351,1.1-.543l.72.656a22.191,22.191,0,0,1-2.753,1.072l2.818-.08c.7-.319,1.408-.64,2.064-.992l.656.736a40.615,40.615,0,0,1-5.73,2.289l6.1-.352c-.353-.288-.737-.561-1.073-.8l.785-.463a30.846,30.846,0,0,1,3.233,2.48l-.816.544c-.289-.288-.721-.639-1.185-1.04l-3.938.256V43.16c0,.592-.127.864-.608,1.025a8.781,8.781,0,0,1-2.369.175,3.367,3.367,0,0,0-.416-.992,15.893,15.893,0,0,0,1.936.017c.241-.017.3-.065.3-.24V41.031c-4.482.3-5.074.368-5.458.5-.049-.191-.177-.687-.272-.944a10.926,10.926,0,0,0,2.1-.513c.449-.143,1.441-.464,2.625-.927a17.28,17.28,0,0,0-3.409.24,7.341,7.341,0,0,0-.272-.945,5.282,5.282,0,0,0,1.232-.256,17.193,17.193,0,0,0,2.417-.912,1.144,1.144,0,0,1-.351.064c-.256,0-.705,0-1.153-.032a1.947,1.947,0,0,0-.192-.656c.448.032.832.047,1.009.047a.5.5,0,0,0,.416-.144.974.974,0,0,0,.08-.127h-4.578c.095-.529.192-1.233.288-1.969h-1.2v-.721h1.281c.064-.576.128-1.168.175-1.68a5.824,5.824,0,0,1-.784.768,5.688,5.688,0,0,0-.864-.56,6.742,6.742,0,0,0,2.113-2.625l.976.224c-.1.207-.191.4-.3.608h4.882v.768h-5.378a6.427,6.427,0,0,1-.5.657h5.362s-.016.272-.032.4q-.048.818-.1,1.441h.976v.721h-1.04c-.048.512-.112.912-.16,1.248h.768v.512a9.37,9.37,0,0,0,2.721-1.456,8.911,8.911,0,0,1-1.216-1.889,7.867,7.867,0,0,1-.816.929,5.951,5.951,0,0,0-.784-.753,6.9,6.9,0,0,0,2-3.361l1.024.192c-.111.384-.24.752-.384,1.12h4.4v.9Zm-8.211,10.084a16.762,16.762,0,0,1-4.018,2.065,7.315,7.315,0,0,0-.881-.8,14.314,14.314,0,0,0,3.858-1.7Zm-2.9-7.572c-.048.465-.112.9-.16,1.3h2.545c-.384-.271-.992-.672-1.473-.976l.3-.321Zm.193-1.824c-.033.384-.081.8-.128,1.2h2.544a11.537,11.537,0,0,0-1.457-.9l.3-.3ZM576.33,35.7a11.9,11.9,0,0,0,.177-1.3h-2.274a15.5,15.5,0,0,1,1.393.881l-.352.416Zm.24-1.921c.033-.352.065-.753.1-1.2h-2.161a12.4,12.4,0,0,1,1.3.736l-.368.464Zm4.226,7.683a22.359,22.359,0,0,1,3.954,1.793l-.9.688a20.762,20.762,0,0,0-3.906-1.856Zm-.672-9.524a7.213,7.213,0,0,0,1.328,2.145,5.93,5.93,0,0,0,1.313-2.192H580.14Z"/><path d="M592.267,36.966V35.525H587.8V36.6h4.45v6.593c0,.5-.1.77-.433.93a4.547,4.547,0,0,1-1.713.176,2.892,2.892,0,0,0-.32-.929c.576.017,1.073.017,1.233,0,.144,0,.192-.032.192-.192V41.5h-2.4v2.8H587.8V36.966h-.912V34.677h.912V30.242h4.466v4.435h.944v2.289Zm-3.554-2.289h.832V32.2h1.777v-1.04h-2.609Zm.1,2.785V38.6h2.4V37.462Zm2.4,3.169v-1.2h-2.4v1.2Zm.112-7.684H590.3v1.73h1.024ZM601.2,43.112v.9h-8.212v-.9h2.434a6.916,6.916,0,0,0-.608-1.616l.864-.289a7.073,7.073,0,0,1,.7,1.825l-.224.08H597.9l-.143-.048a11.742,11.742,0,0,0,.752-1.873l.992.288c-.288.56-.576,1.169-.832,1.633Zm-.112-5.65h-7.811v-.88h7.811Zm-.561-1.665h-6.77V31.155h1.889V29.7h.9v1.456h1.137V29.7h.9v1.456h1.952Zm-6.465,5.379V38.23h6.177v2.946Zm.607-8.1h1.121V31.988h-1.121Zm0,1.889h1.121V33.86h-1.121Zm.368,5.426h4.178V39.015h-4.178Zm2.642-7.315V31.988H596.54v1.088Zm-1.137.784v1.105h1.137V33.86Zm3.058-1.872h-1.185v1.088H599.6Zm0,1.872h-1.185v1.105H599.6Z"/><path d="M616.237,32.531v7.492h-1.216V39.11h-4.593V44.3H609.2V39.11h-4.578V40.1h-1.169V32.531H609.2V29.683h1.233v2.848Zm-7.042,5.41V33.7h-4.578v4.241Zm5.826,0V33.7h-4.593v4.241Z"/><path d="M630.541,33.668a16.9,16.9,0,0,1-3.745,6.2,15.712,15.712,0,0,0,6.466,3.249,5.507,5.507,0,0,0-.816,1.1,16.19,16.19,0,0,1-6.563-3.506,18.415,18.415,0,0,1-6.658,3.57,6.6,6.6,0,0,0-.737-1.1,17.21,17.21,0,0,0,6.531-3.313,18,18,0,0,1-3.841-6.195h-2.466V32.5h14.342v1.168Zm-8.131,0A16.184,16.184,0,0,0,625.9,39.03a14.666,14.666,0,0,0,3.3-5.362Zm3.393-1.2a12.43,12.43,0,0,0-1.185-2.513l1.234-.352a13.164,13.164,0,0,1,1.248,2.449Z"/><path d="M634.584,38.07h12.838v1.024H634.584Z"/><path d="M662.686,38.791a34.928,34.928,0,0,0-5.938-3.938v3.122h4.417v6.29h-1.216v-.513H652.49V44.3h-1.169V37.99a14.67,14.67,0,0,1-1.68.817,6.147,6.147,0,0,0-.832-.993,16.074,16.074,0,0,0,5.553-3.394H649.1V33.348h6.434V31.7c-1.665.16-3.361.273-4.946.336a4.068,4.068,0,0,0-.3-1.04,60.736,60.736,0,0,0,10.485-1.184l.864.96a37.024,37.024,0,0,1-4.882.8v1.777h6.466V34.42H658.2a35.31,35.31,0,0,1,5.218,3.378Zm-7.155-.816V34.693a17.034,17.034,0,0,1-4.177,3.282Zm4.418.943H652.49v1.489h6.658v.9H652.49v1.489h7.459Z"/><path d="M667.5,36.646a11.613,11.613,0,0,0-2.736-1.681l.672-.881a11.434,11.434,0,0,1,2.753,1.585Zm9.2-1.041a8.05,8.05,0,0,0,3.073,3.249,4.216,4.216,0,0,0-.832.929,8.369,8.369,0,0,1-2.081-1.985v2.993h-4.834v1.648c0,.545.161.657,1.168.657h3.41c.785,0,.928-.256,1.008-1.809a3.548,3.548,0,0,0,1.041.448c-.16,1.906-.528,2.4-1.968,2.4h-3.554c-1.713,0-2.194-.321-2.194-1.681V38.118a9.225,9.225,0,0,1-1.9,1.825,3.949,3.949,0,0,0-.5-.592c-.688,1.585-1.553,3.361-2.289,4.737l-1.057-.736a45.056,45.056,0,0,0,2.61-5.106l.752.576a9.507,9.507,0,0,0,2.769-3.217h-2.849V34.533h2.817V32.676h-2.145V31.588h2.145V29.715h1.152v1.873h3.106V29.715H676.7v1.873h2.385v1.088H676.7v1.857h2.833V35.6Zm-8.419-3.121a11.336,11.336,0,0,0-2.705-1.793l.688-.865a10.5,10.5,0,0,1,2.705,1.713Zm8.163,4.754a10.245,10.245,0,0,1-.9-1.633h-3.041a10.543,10.543,0,0,1-.929,1.633Zm-.656.944h-3.762v1.665h3.762Zm-3.346-3.649h3.106V32.676h-3.106Z"/><path d="M519.989,50.705h-3.11V49.6H524.4v1.107h-3.109V59.88h-1.3Z"/><path d="M525.392,52.273h1.05l.112,1.387h.042a2.624,2.624,0,0,1,2.157-1.582,1.608,1.608,0,0,1,.812.168l-.238,1.12a1.812,1.812,0,0,0-.742-.126c-.63,0-1.414.448-1.919,1.751V59.88h-1.274Z"/><path d="M529.97,57.9c0-1.652,1.442-2.478,4.678-2.842,0-.982-.322-1.919-1.569-1.919a4.189,4.189,0,0,0-2.283.812l-.5-.883a5.719,5.719,0,0,1,3-.994c1.85,0,2.634,1.246,2.634,3.123V59.88h-1.051l-.112-.911h-.042a4.074,4.074,0,0,1-2.522,1.093A2.062,2.062,0,0,1,529.97,57.9Zm4.678.127V55.9c-2.563.308-3.432.938-3.432,1.918,0,.869.589,1.219,1.345,1.219A3.109,3.109,0,0,0,534.648,58.031Z"/><path d="M537.795,56.084c0-2.465,1.555-4.006,3.292-4.006a3.088,3.088,0,0,1,2.142.9l-.055-1.318V48.73h1.261V59.88H543.4l-.111-.9h-.042a3.39,3.39,0,0,1-2.311,1.079C539.027,60.062,537.795,58.619,537.795,56.084Zm5.379,1.863V53.955a2.727,2.727,0,0,0-1.863-.8c-1.233,0-2.2,1.177-2.2,2.914,0,1.834.757,2.928,2.1,2.928A2.666,2.666,0,0,0,543.174,57.947Z"/><path d="M546.812,49.851a.855.855,0,1,1,.854.854A.8.8,0,0,1,546.812,49.851Zm.209,2.422H548.3V59.88h-1.276Z"/><path d="M551.1,57.526V53.311h-1.135v-.967l1.19-.071.155-2.142h1.064v2.142h2.06v1.038h-2.06v4.244c0,.938.294,1.47,1.177,1.47a2.667,2.667,0,0,0,.868-.2l.253.952a4.768,4.768,0,0,1-1.4.281C551.642,60.062,551.1,59.039,551.1,57.526Z"/><path d="M555.939,49.851a.855.855,0,1,1,.855.854A.8.8,0,0,1,555.939,49.851Zm.21,2.422h1.276V59.88h-1.276Z"/><path d="M559.425,56.084c0-2.535,1.667-4.006,3.53-4.006s3.53,1.471,3.53,4.006-1.667,3.978-3.53,3.978S559.425,58.605,559.425,56.084Zm5.743,0c0-1.751-.9-2.941-2.213-2.941s-2.2,1.19-2.2,2.941.883,2.914,2.2,2.914S565.168,57.835,565.168,56.084Z"/><path d="M568.483,52.273h1.051l.112,1.093h.042a3.65,3.65,0,0,1,2.55-1.288c1.6,0,2.325,1.036,2.325,2.984V59.88h-1.275V55.229c0-1.428-.434-2.031-1.442-2.031a2.891,2.891,0,0,0-2.087,1.163V59.88h-1.276Z"/><path d="M576.562,57.9c0-1.652,1.442-2.478,4.678-2.842,0-.982-.322-1.919-1.569-1.919a4.189,4.189,0,0,0-2.283.812l-.5-.883a5.719,5.719,0,0,1,3-.994c1.849,0,2.634,1.246,2.634,3.123V59.88h-1.051l-.112-.911h-.042a4.074,4.074,0,0,1-2.522,1.093A2.062,2.062,0,0,1,576.562,57.9Zm4.678.127V55.9c-2.563.308-3.432.938-3.432,1.918,0,.869.588,1.219,1.344,1.219A3.109,3.109,0,0,0,581.24,58.031Z"/><path d="M584.933,58.367V48.73h1.275v9.721c0,.393.168.547.364.547a1.081,1.081,0,0,0,.266-.029l.183.98a1.95,1.95,0,0,1-.744.113C585.325,60.062,584.933,59.445,584.933,58.367Z"/><path d="M591.583,54.753c0-3.319,1.946-5.337,4.552-5.337a3.8,3.8,0,0,1,2.816,1.275l-.7.84a2.805,2.805,0,0,0-2.1-.98c-1.947,0-3.236,1.6-3.236,4.16,0,2.592,1.233,4.217,3.194,4.217a3.121,3.121,0,0,0,2.381-1.149l.715.813a3.973,3.973,0,0,1-3.152,1.47C593.5,60.062,591.583,58.087,591.583,54.753Z"/><path d="M600.99,48.73h1.276v3.053l-.042,1.57a3.567,3.567,0,0,1,2.521-1.275c1.6,0,2.325,1.036,2.325,2.984V59.88h-1.275V55.229c0-1.428-.434-2.031-1.442-2.031a2.89,2.89,0,0,0-2.087,1.163V59.88H600.99Z"/><path d="M609.278,49.851a.855.855,0,1,1,.855.854A.8.8,0,0,1,609.278,49.851Zm.21,2.422h1.276V59.88h-1.276Z"/><path d="M613.338,52.273h1.051l.112,1.093h.042a3.648,3.648,0,0,1,2.55-1.288c1.6,0,2.325,1.036,2.325,2.984V59.88h-1.275V55.229c0-1.428-.434-2.031-1.443-2.031a2.893,2.893,0,0,0-2.087,1.163V59.88h-1.275Z"/><path d="M621.317,56.084c0-2.465,1.667-4.006,3.433-4.006,1.933,0,3.025,1.4,3.025,3.571a4.989,4.989,0,0,1-.056.729h-5.126a2.519,2.519,0,0,0,2.52,2.661,3.29,3.29,0,0,0,1.906-.6l.462.839a4.521,4.521,0,0,1-2.521.785A3.635,3.635,0,0,1,621.317,56.084Zm5.337-.631c0-1.526-.7-2.353-1.89-2.353a2.337,2.337,0,0,0-2.186,2.353Z"/><path d="M628.793,59.012l.631-.841a3.451,3.451,0,0,0,2.255.9c1.009,0,1.5-.532,1.5-1.19,0-.785-.9-1.121-1.738-1.443-1.064-.392-2.226-.911-2.226-2.2,0-1.2.98-2.156,2.633-2.156a3.867,3.867,0,0,1,2.353.854l-.616.827a2.784,2.784,0,0,0-1.723-.673c-.966,0-1.415.5-1.415,1.093,0,.728.784.995,1.639,1.317,1.106.42,2.325.867,2.325,2.311,0,1.232-.98,2.255-2.773,2.255A4.6,4.6,0,0,1,628.793,59.012Z"/><path d="M635.625,56.084c0-2.465,1.667-4.006,3.433-4.006,1.932,0,3.025,1.4,3.025,3.571a4.836,4.836,0,0,1-.057.729H636.9a2.52,2.52,0,0,0,2.521,2.661,3.284,3.284,0,0,0,1.9-.6l.463.839a4.523,4.523,0,0,1-2.521.785A3.635,3.635,0,0,1,635.625,56.084Zm5.337-.631c0-1.526-.7-2.353-1.891-2.353a2.336,2.336,0,0,0-2.185,2.353Z"/><path d="M646.448,55.5h11.234v.9H646.448Z"/><path d="M662.856,49.6h1.3v4.314h4.791V49.6h1.288V59.88H668.95V55.033h-4.791V59.88h-1.3Z"/><path d="M672.361,56.084c0-2.535,1.667-4.006,3.531-4.006s3.53,1.471,3.53,4.006-1.667,3.978-3.53,3.978S672.361,58.605,672.361,56.084Zm5.743,0c0-1.751-.9-2.941-2.212-2.941s-2.2,1.19-2.2,2.941.883,2.914,2.2,2.914S678.1,57.835,678.1,56.084Z"/><path d="M681.42,52.273h1.051l.112,1.093h.042a3.65,3.65,0,0,1,2.55-1.288c1.6,0,2.325,1.036,2.325,2.984V59.88h-1.275V55.229c0-1.428-.434-2.031-1.443-2.031a2.893,2.893,0,0,0-2.087,1.163V59.88H681.42Z"/><path d="M689.4,61.337a2.137,2.137,0,0,1,1.122-1.724v-.055a1.375,1.375,0,0,1-.7-1.247,1.855,1.855,0,0,1,.855-1.415V56.84a2.668,2.668,0,0,1-1-2.045,2.709,2.709,0,0,1,2.857-2.717,3.164,3.164,0,0,1,1.065.2h2.647v.981h-1.555a2.17,2.17,0,0,1,.617,1.569,2.609,2.609,0,0,1-2.774,2.648,2.652,2.652,0,0,1-1.135-.266,1.133,1.133,0,0,0-.49.91c0,.49.309.826,1.331.826h1.486c1.764,0,2.661.561,2.661,1.807,0,1.415-1.5,2.634-3.853,2.634C690.675,63.382,689.4,62.653,689.4,61.337Zm5.744-.393c0-.7-.546-.938-1.555-.938h-1.317a4.276,4.276,0,0,1-.98-.126,1.582,1.582,0,0,0-.77,1.288c0,.812.826,1.346,2.2,1.346C694.177,62.514,695.143,61.742,695.143,60.944Zm-.981-6.149a1.632,1.632,0,1,0-3.25,0,1.634,1.634,0,1,0,3.25,0Z"/><path d="M701.1,49.6h1.3v5.17h.042l4.286-5.17h1.457l-3.208,3.923L708.7,59.88h-1.442l-3.082-5.351-1.765,2.1v3.25h-1.3Z"/><path d="M709.349,56.084c0-2.535,1.667-4.006,3.53-4.006s3.53,1.471,3.53,4.006-1.667,3.978-3.53,3.978S709.349,58.605,709.349,56.084Zm5.743,0c0-1.751-.9-2.941-2.213-2.941s-2.2,1.19-2.2,2.941.882,2.914,2.2,2.914S715.092,57.835,715.092,56.084Z"/><path d="M718.407,52.273h1.051l.111,1.093h.042a3.652,3.652,0,0,1,2.55-1.288c1.6,0,2.325,1.036,2.325,2.984V59.88h-1.274V55.229c0-1.428-.435-2.031-1.443-2.031a2.89,2.89,0,0,0-2.087,1.163V59.88h-1.275Z"/><path d="M726.387,61.337a2.136,2.136,0,0,1,1.12-1.724v-.055a1.376,1.376,0,0,1-.7-1.247,1.857,1.857,0,0,1,.854-1.415V56.84a2.671,2.671,0,0,1-.994-2.045,2.709,2.709,0,0,1,2.857-2.717,3.174,3.174,0,0,1,1.065.2h2.647v.981h-1.554a2.174,2.174,0,0,1,.616,1.569,2.609,2.609,0,0,1-2.774,2.648,2.644,2.644,0,0,1-1.134-.266,1.129,1.129,0,0,0-.491.91c0,.49.308.826,1.331.826h1.485c1.764,0,2.661.561,2.661,1.807,0,1.415-1.5,2.634-3.852,2.634C727.661,63.382,726.387,62.653,726.387,61.337Zm5.743-.393c0-.7-.547-.938-1.555-.938h-1.317a4.284,4.284,0,0,1-.981-.126,1.584,1.584,0,0,0-.77,1.288c0,.812.827,1.346,2.2,1.346C731.163,62.514,732.13,61.742,732.13,60.944Zm-.981-6.149a1.632,1.632,0,1,0-3.25,0,1.634,1.634,0,1,0,3.25,0Z"/><path d="M864.27,30.787v13.27h-1.249V43.08h-7.94v1.041h-1.2V30.787Zm-9.189,1.168v4.322h7.94V31.955Zm7.94,9.957V37.445h-7.94v4.467Z"/><path d="M876.348,34.229a14.339,14.339,0,0,0,6.146,6.5,4.252,4.252,0,0,0-.881,1.041,15.788,15.788,0,0,1-6-6.532v4.9h3.041v1.184h-3.041V44.3h-1.232V41.319h-3.121V40.135h3.121v-4.9a16.671,16.671,0,0,1-5.986,6.547,4.87,4.87,0,0,0-.849-.96,15.275,15.275,0,0,0,6.1-6.594h-5.555V33.044h6.291V29.7h1.232v3.345h6.339v1.185Z"/><path d="M883.672,32.371h5.778v.977h-5.778Zm5.3,11.19h-3.537v.72h-1.04V38.935h4.577Zm-.064-8.036h-4.481V34.58h4.481Zm-4.481,1.233h4.481V37.7h-4.481Zm4.466-5.555h-4.37v-.961h4.37Zm-3.458,8.707v2.674h2.5V39.91Zm12.933-3.6v1.055h-8.851V36.31H891.6c.143-.673.3-1.49.447-2.322h-1.809V32.964H892.2c.1-.56.177-1.12.257-1.649h-2.466v-1.04h7.86v1.04h-4.226c-.08.529-.176,1.089-.273,1.649h3.6V36.31Zm-7.7,2.288h6.723v5.634h-1.153v-.671h-4.45V44.3h-1.12Zm1.12,1.056v2.834h4.45V39.654Zm1.393-5.666c-.144.849-.288,1.649-.432,2.322h3.073V33.988Z"/><path d="M844.306,58.438l.923-.659a1.942,1.942,0,0,0,1.78,1.149c1.106,0,1.653-.631,1.653-2.186V49.6h1.288v7.27c0,1.765-.812,3.194-2.815,3.194A3.027,3.027,0,0,1,844.306,58.438Z"/><path d="M852.132,57.9c0-1.652,1.442-2.478,4.679-2.842,0-.982-.323-1.919-1.57-1.919a4.192,4.192,0,0,0-2.283.812l-.5-.883a5.719,5.719,0,0,1,3-.994c1.85,0,2.634,1.246,2.634,3.123V59.88h-1.051l-.112-.911h-.042a4.074,4.074,0,0,1-2.522,1.093A2.062,2.062,0,0,1,852.132,57.9Zm4.679.127V55.9c-2.564.308-3.433.938-3.433,1.918,0,.869.589,1.219,1.345,1.219A3.113,3.113,0,0,0,856.811,58.031Z"/><path d="M860.5,52.273h1.051l.111.87h.042a4.054,4.054,0,0,1,2.424-1.065c1.961,0,3.025,1.541,3.025,3.88,0,2.6-1.554,4.1-3.305,4.1a3.435,3.435,0,0,1-2.1-.882l.028,1.33v2.578H860.5Zm5.323,3.7c0-1.681-.56-2.816-2-2.816a3.178,3.178,0,0,0-2.045,1.051V58.2a2.955,2.955,0,0,0,1.864.8C864.9,59,865.827,57.863,865.827,55.972Z"/><path d="M868.484,57.9c0-1.652,1.443-2.478,4.679-2.842,0-.982-.322-1.919-1.569-1.919a4.189,4.189,0,0,0-2.283.812l-.5-.883a5.719,5.719,0,0,1,3-.994c1.849,0,2.634,1.246,2.634,3.123V59.88h-1.051l-.113-.911h-.042a4.071,4.071,0,0,1-2.521,1.093A2.063,2.063,0,0,1,868.484,57.9Zm4.679.127V55.9c-2.563.308-3.433.938-3.433,1.918,0,.869.589,1.219,1.345,1.219A3.111,3.111,0,0,0,873.163,58.031Z"/><path d="M876.855,52.273h1.051l.113,1.093h.042a3.646,3.646,0,0,1,2.549-1.288c1.6,0,2.326,1.036,2.326,2.984V59.88H881.66V55.229c0-1.428-.433-2.031-1.442-2.031a2.891,2.891,0,0,0-2.087,1.163V59.88h-1.276Z"/><path d="M884.835,56.084c0-2.465,1.667-4.006,3.433-4.006,1.932,0,3.025,1.4,3.025,3.571a4.836,4.836,0,0,1-.057.729H886.11a2.519,2.519,0,0,0,2.521,2.661,3.284,3.284,0,0,0,1.9-.6l.463.839a4.523,4.523,0,0,1-2.521.785A3.635,3.635,0,0,1,884.835,56.084Zm5.337-.631c0-1.526-.7-2.353-1.891-2.353a2.336,2.336,0,0,0-2.185,2.353Z"/><path d="M892.311,59.012l.63-.841a3.453,3.453,0,0,0,2.255.9c1.009,0,1.5-.532,1.5-1.19,0-.785-.9-1.121-1.737-1.443-1.064-.392-2.227-.911-2.227-2.2,0-1.2.981-2.156,2.633-2.156a3.867,3.867,0,0,1,2.354.854l-.616.827a2.784,2.784,0,0,0-1.723-.673c-.967,0-1.415.5-1.415,1.093,0,.728.784.995,1.639,1.317,1.106.42,2.325.867,2.325,2.311,0,1.232-.981,2.255-2.774,2.255A4.594,4.594,0,0,1,892.311,59.012Z"/><path d="M899.143,56.084c0-2.465,1.667-4.006,3.432-4.006,1.933,0,3.026,1.4,3.026,3.571a4.972,4.972,0,0,1-.057.729h-5.126a2.519,2.519,0,0,0,2.52,2.661,3.287,3.287,0,0,0,1.906-.6l.463.839a4.527,4.527,0,0,1-2.522.785A3.635,3.635,0,0,1,899.143,56.084Zm5.336-.631c0-1.526-.7-2.353-1.89-2.353a2.337,2.337,0,0,0-2.186,2.353Z"/><path d="M1112.283,32.725h-8.467V31.668h3.57V29.906h1.312v1.762h3.585Zm-4.241,6.129c-2.033,0-3.426-1.056-3.426-2.672s1.393-2.658,3.426-2.658,3.441,1.056,3.441,2.658S1110.074,38.854,1108.042,38.854Zm0-1.024c1.3,0,2.192-.641,2.192-1.648s-.9-1.633-2.192-1.633-2.177.64-2.177,1.633S1106.745,37.83,1108.042,37.83Zm-.753,5.042h8.26v1.072h-9.572V39.83h1.312Zm9.732-8.227v1.1h-2.113V40.68H1113.6V29.906h1.312v4.739Z"/><path d="M1125.643,36.789v2.625h4.273v4.834H1128.6V40.471h-8.74V39.414h4.466V36.789h-5.843V35.717h9.668a17.078,17.078,0,0,0,.385-4.066h-8.388V30.6h9.684v1.039a18.619,18.619,0,0,1-.352,4.082h2.033v1.072Z"/><path d="M1145.036,29.906V44.3h-1.312V36.453H1140.6c-.128,2.818-1.553,4.578-3.554,4.578-2.1,0-3.585-1.953-3.585-5.01s1.488-5.009,3.585-5.009c1.936,0,3.346,1.679,3.554,4.369h3.121V29.906Zm-5.666,6.115c0-2.321-.961-3.826-2.321-3.826-1.376,0-2.337,1.505-2.337,3.826,0,2.337.961,3.842,2.337,3.842C1138.409,39.863,1139.37,38.358,1139.37,36.021Z"/><path d="M1103.062,49.6h1.3v5.17h.042l4.286-5.17h1.457l-3.208,3.923,3.712,6.359h-1.442l-3.082-5.351-1.765,2.1v3.25h-1.3Z"/><path d="M1111.309,56.084c0-2.535,1.667-4.006,3.529-4.006s3.53,1.471,3.53,4.006-1.667,3.978-3.53,3.978S1111.309,58.605,1111.309,56.084Zm5.743,0c0-1.751-.9-2.941-2.214-2.941s-2.2,1.19-2.2,2.941.882,2.914,2.2,2.914S1117.052,57.835,1117.052,56.084Z"/><path d="M1120.366,52.273h1.051l.112,1.387h.042a2.625,2.625,0,0,1,2.158-1.582,1.612,1.612,0,0,1,.812.168l-.238,1.12a1.818,1.818,0,0,0-.742-.126c-.631,0-1.415.448-1.919,1.751V59.88h-1.276Z"/><path d="M1125.07,56.084c0-2.465,1.667-4.006,3.432-4.006,1.933,0,3.025,1.4,3.025,3.571a5.006,5.006,0,0,1-.055.729h-5.127a2.52,2.52,0,0,0,2.521,2.661,3.287,3.287,0,0,0,1.9-.6l.462.839a4.515,4.515,0,0,1-2.521.785A3.635,3.635,0,0,1,1125.07,56.084Zm5.337-.631c0-1.526-.7-2.353-1.891-2.353a2.337,2.337,0,0,0-2.185,2.353Z"/><path d="M1132.7,57.9c0-1.652,1.443-2.478,4.679-2.842,0-.982-.322-1.919-1.569-1.919a4.2,4.2,0,0,0-2.284.812l-.5-.883a5.726,5.726,0,0,1,3-.994c1.849,0,2.633,1.246,2.633,3.123V59.88h-1.05l-.113-.911h-.042a4.071,4.071,0,0,1-2.521,1.093A2.062,2.062,0,0,1,1132.7,57.9Zm4.679.127V55.9c-2.564.308-3.433.938-3.433,1.918,0,.869.589,1.219,1.345,1.219A3.111,3.111,0,0,0,1137.379,58.031Z"/><path d="M1141.072,52.273h1.051l.111,1.093h.042a3.652,3.652,0,0,1,2.55-1.288c1.6,0,2.325,1.036,2.325,2.984V59.88h-1.274V55.229c0-1.428-.435-2.031-1.443-2.031a2.89,2.89,0,0,0-2.087,1.163V59.88h-1.275Z"/><g style="clip-path:url(#a)"><rect y="60" width="250" height="250"/></g><g style="clip-path:url(#b)"><rect x="250" y="60" width="250" height="250"/><polygon points="466 86 344 96 375 124 466 132 466 86" style="fill:#0071bc"/><polygon points="345 103 345 204 317 266 284 280 263 253 277 98 345 103" style="fill:#0071bc"/><polygon points="371.216 142.244 371.216 164.425 383 204 357.139 230.645 366 245 448 245 461 228 448 142 371.216 142.244" style="fill:#0071bc"/></g><g style="clip-path:url(#c)"><rect x="750" y="60" width="250" height="250"/><polygon points="826 283 777 283 777 89 835 89 838 148 834 175.902 826 283" style="fill:#0071bc"/><polygon points="962 246 857 242 866.542 190.617 867 148 953 144 962 246" style="fill:#0071bc"/><polygon points="962 87.928 840 97.928 871 125.928 962 133.928 962 87.928" style="fill:#0071bc"/></g><g style="clip-path:url(#d)"><rect x="1000" y="60" width="250" height="250"/><polygon points="1076 283 1027 283 1027 89 1099 97 1084 175.902 1076 283" style="fill:#0071bc"/></g><g style="clip-path:url(#e)"><rect x="500" y="60" width="250" height="250"/><polygon points="716 86 600 106 625 129 716 132 716 86" style="fill:#0071bc"/></g></svg>